<?xml version="1.0" encoding="iso-8859-1"?>
<!-- Generator: Adobe Illustrator 19.0.0, SVG Export Plug-In . SVG Version: 6.00 Build 0)  -->
<svg version="1.1" id="Layer_1" xmlns="http://www.w3.org/2000/svg" xmlns:xlink="http://www.w3.org/1999/xlink" x="0px" y="0px"
	 viewBox="0 0 512 512" style="enable-background:new 0 0 512 512;" xml:space="preserve">
<polygon style="fill:#444444;" points="371.599,239.786 359.763,186.161 210.757,186.161 210.757,152.757 386.597,152.757 
	404.218,232.587 "/>
<path style="fill:#B0B0B0;" d="M296.979,448.745V331.494h-33.404v117.25c-26.888,5.439-49.761,23.809-60.696,49.862l30.801,12.927
	c5.666-13.502,16.643-23.583,29.895-28.228V512h33.404v-28.695c13.252,4.645,24.228,14.727,29.894,28.228l30.801-12.927
	C346.74,472.554,323.866,454.185,296.979,448.745z"/>
<path style="fill:#8B8B8B;" d="M296.979,448.745V331.494h-16.702V512h16.702v-28.695c13.252,4.645,24.228,14.727,29.894,28.228
	l30.801-12.927C346.74,472.554,323.866,454.185,296.979,448.745z"/>
<path style="fill:#C0E466;" d="M446.109,348.196H133.757L65.891,27.013L191.757,0l46.123,219.485h208.229V348.196z"/>
<polygon style="fill:#95BB40;" points="185.633,283.84 128.824,13.506 65.891,27.013 133.757,348.196 446.109,348.196 
	446.109,283.84 "/>
<g>
</g>
<g>
</g>
<g>
</g>
<g>
</g>
<g>
</g>
<g>
</g>
<g>
</g>
<g>
</g>
<g>
</g>
<g>
</g>
<g>
</g>
<g>
</g>
<g>
</g>
<g>
</g>
<g>
</g>
</svg>
